PathFileType	4	(X/Y/Z)	/Users/niels/Desktop/University/Third Semester/Perception and Action/Exam/Gymnastics Motion Tracking/Code for Gym Tracking/Analyzed Data/Webcam_Backflip/id1_1_baseline_Sports2D/id1_1_baseline_Sports2D_px_person00.trc
DataRate	CameraRate	NumFrames	NumMarkers	Units	OrigDataRate	OrigDataStartFrame	OrigNumFrames
29.928057553956833	29.928057553956833	10	22	m	29.928057553956833	104	417
Frame#	Time	Hip			RHip			RKnee			RAnkle			RBigToe			RSmallToe			RHeel			LHip			LKnee			LAnkle			LBigToe			LSmallToe			LHeel			Neck			Head			Nose			RShoulder			RElbow			RWrist			LShoulder			LElbow			LWrist		
		X1	Y1	Z1	X2	Y2	Z2	X3	Y3	Z3	X4	Y4	Z4	X5	Y5	Z5	X6	Y6	Z6	X7	Y7	Z7	X8	Y8	Z8	X9	Y9	Z9	X10	Y10	Z10	X11	Y11	Z11	X12	Y12	Z12	X13	Y13	Z13	X14	Y14	Z14	X15	Y15	Z15	X16	Y16	Z16	X17	Y17	Z17	X18	Y18	Z18	X19	Y19	Z19	X20	Y20	Z20	X21	Y21	Z21	X22	Y22	Z22
104	3.475	0.8122193652622662	-0.5459689877980497	0.0	0.8100430908971963	-0.5519659423398148	0.0	0.8361823629814482	-0.7797253138047217	0.0	0.8414654609300238	-1.004867162600466	0.0	0.9491656530176971	-1.033879598616632	0.0	0.9287565323661382	-1.0477132272638177	0.0	0.8218365742440266	-1.036098946452105	0.0	0.8146568474379254	-0.5461345804380815	0.0	0.7967703600115436	-0.7649409329999612	0.0	0.6661134688624307	-0.9188759816125918	0.0	0.6903590365893391	-1.0019519522859126	0.0	0.6851909937858289	-0.9909660576532598	0.0	0.632992809284177	-0.9259792507507233	0.0	0.8280428923823554	-0.19989810423970342	0.0	0.9220227175132623	-0.06715986510265315	0.0	0.9203178536521062	-0.17068905407829593	0.0	0.7832139521580522	-0.2443816981575143	0.0	0.762106990071071	-0.42374435626121737	0.0	0.7794990071630373	-0.5837898231811008	0.0	0.8234255936982396	-0.24424522935931808	0.0	0.802203138586941	-0.4128669932774225	0.0	0.8334900446455509	-0.5546327914639584	0.0
105	3.5084134615384617	0.8263477539152972	-0.5444638445522647	0.0	0.8216489732715601	-0.5491874186473578	0.0	0.8443195032071905	-0.7767316836273902	0.0	0.8420921167676227	-1.003869485634032	0.0	0.9500513097117882	-1.0342988478709292	0.0	0.9290389212760064	-1.0481475603631587	0.0	0.8211059484115878	-1.0343091826392115	0.0	0.8328401390123964	-0.543396234111424	0.0	0.826892541802702	-0.7611275613372768	0.0	0.6974844718100307	-0.9130744267953851	0.0	0.7171337594994157	-0.9902035416768218	0.0	0.7106643018132769	-0.9797594348842161	0.0	0.6631953320309779	-0.9194572234715482	0.0	0.8404916791753374	-0.19901701024061239	0.0	0.934320337068569	-0.06503974431997292	0.0	0.9327676814413436	-0.16834917706488767	0.0	0.7990969212374129	-0.24281739510223446	0.0	0.7833823055234806	-0.42245015208840997	0.0	0.8111751359737668	-0.5802890435180825	0.0	0.8355737475098194	-0.2426557433534391	0.0	0.8173124451988185	-0.4109457861515637	0.0	0.8445404208338867	-0.5544758487574063	0.0
106	3.541826923076923	0.8391117812210451	-0.5416798510036148	0.0	0.8323662858921332	-0.5447341253374478	0.0	0.8520109792052479	-0.7728510508660498	0.0	0.8431827229917211	-1.002868479253225	0.0	0.9512775314588255	-1.0345219489786965	0.0	0.92914499637703	-1.0484259248559058	0.0	0.8208507400384232	-1.032765587301588	0.0	0.8494885431171497	-0.5393723892187372	0.0	0.856796215641634	-0.7559181446866475	0.0	0.7335895243953028	-0.9095191019422507	0.0	0.7552204105835396	-0.977582241892989	0.0	0.7469991628283167	-0.9672798676224705	0.0	0.6973811047091953	-0.9170165780913195	0.0	0.8527252635457558	-0.19836742014985898	0.0	0.9459432294463797	-0.06309063338867239	0.0	0.944741513963262	-0.16635870075997639	0.0	0.8146829240293292	-0.240966307983026	0.0	0.8050630424623295	-0.4202345184469424	0.0	0.8438301633664886	-0.5760429960582745	0.0	0.8481589294207182	-0.24090097930179982	0.0	0.8350934786176155	-0.4086354694008087	0.0	0.8606286618391583	-0.5526853047112724	0.0
107	3.5752403846153844	0.8509273572250353	-0.5380115838024206	0.0	0.8422218368229424	-0.5391848699228523	0.0	0.8589752151628666	-0.7687751379465337	0.0	0.8446688101533326	-1.001960421093651	0.0	0.9524481594722839	-1.0346880862152372	0.0	0.929048445136551	-1.0485572314469211	0.0	0.8211237163199252	-1.0319024823797536	0.0	0.8650186570590357	-0.534624204329769	0.0	0.8860895440815476	-0.7502419510071008	0.0	0.773498971609052	-0.9090096384192738	0.0	0.8042329199226368	-0.9671542348189069	0.0	0.7944644724229799	-0.9563296645525825	0.0	0.7353432028865083	-0.9194070535549451	0.0	0.86492261052923	-0.19758143747216525	0.0	0.9567835700631906	-0.061256422321046076	0.0	0.9563227160406188	-0.16433425681631297	0.0	0.829538615884396	-0.23876221721661836	0.0	0.8263810917868689	-0.41727919116160195	0.0	0.8767648688745638	-0.5710668173410899	0.0	0.8610736181817208	-0.2390384910278742	0.0	0.8539514109547215	-0.40600360070456265	0.0	0.8802316839414727	-0.5492830615432039	0.0
108	3.608653846153846	0.8624691084108007	-0.534029723081477	0.0	0.8516145894612656	-0.5333767883952544	0.0	0.8651405886108822	-0.7652287712917647	0.0	0.8463391112849622	-1.0012072814316673	0.0	0.9534807383434052	-1.0348679266820966	0.0	0.9289525603929473	-1.0485586707354604	0.0	0.8216245692679857	-1.0319189577601269	0.0	0.8798267228688176	-0.5299250135613245	0.0	0.9145918823028759	-0.7449745740102329	0.0	0.816085572322848	-0.9123191570198231	0.0	0.8621018930674109	-0.9618344151216537	0.0	0.8513241242102444	-0.9499287905218228	0.0	0.7771449275557556	-0.9268591263462916	0.0	0.8772324308759997	-0.19650631559479076	0.0	0.9669879976654622	-0.05958477513607134	0.0	0.9677248070687685	-0.16201822490361487	0.0	0.8436429230581189	-0.23634011281220788	0.0	0.8469214430356732	-0.4138940197628256	0.0	0.9093746069102722	-0.5653132249993092	0.0	0.8739390849354974	-0.23709766627557677	0.0	0.8725073056655923	-0.4030903671352703	0.0	0.9011904293600554	-0.5443440901859266	0.0
109	3.6420673076923076	0.8742788412282219	-0.5304385113217477	0.0	0.8611534664421923	-0.5283147339102656	0.0	0.8706308972933521	-0.7628625550299135	0.0	0.847866071975781	-1.0006204303783004	0.0	0.9543656733181448	-1.0350900106100398	0.0	0.929100579694879	-1.0485536672058215	0.0	0.8219660502822962	-1.0327000342936519	0.0	0.8940674159734467	-0.5260871588227195	0.0	0.9416093564593312	-0.7407902430636804	0.0	0.8602062117722185	-0.9193466248257822	0.0	0.9241842859262531	-0.9627093946177384	0.0	0.913103998209875	-0.9497162774552476	0.0	0.8225914856914384	-0.9383809422893687	0.0	0.8896689510246073	-0.19517876698973707	0.0	0.9769941362112227	-0.05831170364079981	0.0	0.9791637416294277	-0.15963141704474682	0.0	0.8573073380318177	-0.23403293539285774	0.0	0.8666972055405794	-0.4105684765123155	0.0	0.9412692098581348	-0.5587922846327177	0.0	0.8859745840921398	-0.23513571869216873	0.0	0.8896018416926719	-0.40003176457353795	0.0	0.9218137193025496	-0.5380923713739217	0.0
110	3.675480769230769	0.8864724399734433	-0.5278300206773365	0.0	0.8712687418076075	-0.5247268581085202	0.0	0.8756089220385233	-0.7619660519512549	0.0	0.8489020254610005	-1.0001841888839282	0.0	0.9549346025766496	-1.0354272931846642	0.0	0.9294673740420595	-1.0488027096003154	0.0	0.8219481227103795	-1.033887554521541	0.0	0.9076733802363797	-0.5236124154261674	0.0	0.9660348909655165	-0.7380902317718413	0.0	0.9048546286864991	-0.9286572706143827	0.0	0.9847735293002152	-0.9681419593758923	0.0	0.9741245355142505	-0.9546441331365284	0.0	0.8706014317856866	-0.9518588028994495	0.0	0.9021730214007508	-0.19372571614954937	0.0	0.9873729560116259	-0.057732686486649476	0.0	0.9908104106335399	-0.15772047775902498	0.0	0.8708854504130812	-0.23216418766615898	0.0	0.8859297969165136	-0.40788384560785773	0.0	0.9722231887072486	-0.5517084125880409	0.0	0.8964413441450766	-0.23332724099039398	0.0	0.9046471504363843	-0.3971089968503132	0.0	0.9415459201168246	-0.5309520303583318	0.0
111	3.7088942307692307	0.8988631703488652	-0.5264364033089677	0.0	0.8820801081570683	-0.5227626498254696	0.0	0.8802763731936252	-0.7623128419906648	0.0	0.8492515846667309	-0.9998877667991891	0.0	0.9550535269778876	-1.0359285297905563	0.0	0.9298280703662773	-1.0494908676431756	0.0	0.8216571668116329	-1.035051247642474	0.0	0.9206105626714365	-0.5225512545762547	0.0	0.9870373222819986	-0.7370546633506169	0.0	0.9492556772894298	-0.9382621851330649	0.0	1.0402747980241476	-0.9749597768718513	0.0	1.0304540235359878	-0.961676228050523	0.0	0.9194331639311897	-0.9651443322342668	0.0	0.9147739408035387	-0.19231930979667097	0.0	0.9986062640455128	-0.057996210324426735	0.0	1.0028437640587518	-0.15672096312051692	0.0	0.8845786819266479	-0.230902985233107	0.0	0.9048012452701564	-0.40629813006508847	0.0	1.0020090240916983	-0.5444836298102174	0.0	0.905319244814201	-0.23193646028316506	0.0	0.9179467053426881	-0.39465229414413877	0.0	0.9609017012582951	-0.5234808816532542	0.0
112	3.7423076923076923	0.9113051693659995	-0.5261431757094231	0.0	0.8935354215545412	-0.5221596419679544	0.0	0.8849735130524485	-0.7634105430010222	0.0	0.848967486875251	-0.9997666177618125	0.0	0.9549243770928845	-1.03645212952456	0.0	0.9301123017545878	-1.0504508879968317	0.0	0.8213469386255726	-1.0358545115129467	0.0	0.9331165629443148	-0.5227021802445206	0.0	1.0046141840376321	-0.7377152912267687	0.0	0.9924838829567569	-0.9466973887636787	0.0	1.089887911632138	-0.9804740875302297	0.0	1.080631803213787	-0.9678614301828076	0.0	0.9673179801098132	-0.9767903970131484	0.0	0.9276335995722916	-0.1912410712939713	0.0	1.0109427201615182	-0.05906267212995374	0.0	1.015410925328373	-0.15678942329782547	0.0	0.8984246417491208	-0.2303613325967462	0.0	0.9233222627974568	-0.4060276190453482	0.0	1.0302407899237085	-0.5377088370436444	0.0	0.9134669467773907	-0.23123011878689373	0.0	0.9303753643199559	-0.3929244032378744	0.0	0.9811409132694487	-0.5162446380379889	0.0
113	3.775721153846154	0.9238615628393587	-0.5266855153770001	0.0	0.9056276718077293	-0.5225530945204772	0.0	0.8901245286032481	-0.7648555474571572	0.0	0.8482554367121404	-0.9999035431555847	0.0	0.954916257652028	-1.036763417118193	0.0	0.9304348341990294	-1.0512306533732876	0.0	0.8211610994306958	-1.0361091406209952	0.0	0.9456577199721719	-0.523811855211668	0.0	1.0195296621157848	-0.740009986546244	0.0	1.0329008080724806	-0.9535522392953023	0.0	1.1336616113756557	-0.9836104238249016	0.0	1.1241293813388669	-0.971861626113568	0.0	1.0122912148273033	-0.986260185387165	0.0	0.9409044479055498	-0.19088088347868026	0.0	1.024384864385238	-0.0608386869564884	0.0	1.02851084189391	-0.15790318856618762	0.0	0.9123832542139722	-0.23064088407411584	0.0	0.9413067356739824	-0.4069901551751878	0.0	1.0562823652598272	-0.532042441000249	0.0	0.9220293908495146	-0.23136798627580932	0.0	0.942638194181099	-0.39204775748901566	0.0	1.0037480493652111	-0.5097041514213932	0.0
